<?xml version="1.0" encoding="utf-8"?>
<!-- Generator: Adobe Illustrator 23.0.1, SVG Export Plug-In . SVG Version: 6.00 Build 0)  -->
<svg version="1.1" id="Camada_1" xmlns="http://www.w3.org/2000/svg" xmlns:xlink="http://www.w3.org/1999/xlink" x="0px" y="0px"
	 viewBox="0 0 900 900" style="enable-background:new 0 0 900 900;" xml:space="preserve">
<style type="text/css">
	.st0{fill:#ffac0d;}
</style>
<g id="XMLID_72_">
	<path id="XMLID_127_" class="st0" d="M530.3,43.02c6.49,4.41,8.5,10.5,8.2,18.28c-0.51,13.45-0.13,26.93-0.14,40.4
		c-0.01,14.59-2.34,17.36-17.22,19.78c0.47,17.56-1.33,34.61,8.04,51.86c23.52,43.32,44.8,87.84,67.11,131.82
		c13.37,26.36,20.14,54.2,20.13,83.8c-0.08,137.33-0.5,274.65,0.29,411.98c0.2,34.42-24.65,54.1-53.55,53.79
		c-87.4-0.95-174.82-0.34-262.24-0.34c-34.12,0-53.18-18.83-53.19-52.67c-0.02-138.12-0.01-276.24-0.01-414.35
		c0-28.21,6.4-54.88,19.1-80.05c22.81-45.21,45.41-90.52,68.59-135.53c5.48-10.64,8.91-21.14,7.73-33.16
		c-0.56-5.71-0.1-11.51-0.1-17.14c-14.93-2.37-17.29-5.16-17.3-19.77c-0.01-13.47,0.37-26.95-0.14-40.4
		c-0.29-7.78,1.69-13.87,8.2-18.27C399.3,43.02,464.8,43.02,530.3,43.02z M556.83,285.87c-5.84,3.48-11.49,7.13-17.4,10.29
		c-8.53,4.56-16.83,10.35-25.98,12.79c-19.42,5.18-37.46,0.71-53.77-11.45c-5.8-4.32-12.41-8.28-19.26-10.33
		c-13.24-3.97-24.45,1.48-35.18,9.44c-26.06,19.33-52.86,19.27-78.98,0.77c-4.5-3.19-9.31-5.96-14.02-8.83
		c-3.95-2.41-6.54-1.6-8.58,2.91c-3.58,7.92-7.6,15.66-11.67,23.35c-12.88,24.29-18.59,50.11-18.54,77.62
		c0.22,136.25,0.1,272.5,0.1,408.76c0,19.69,7.64,27.43,27.2,27.43c87.4,0.02,174.8,0.02,262.21,0c20.06,0,27.61-7.64,27.61-27.83
		c0-135.2-0.54-270.39,0.33-405.58C591.15,355.12,577.04,320.67,556.83,285.87z M545.14,261.85c-0.8-1.71-1.84-4.07-3-6.37
		c-13.77-27.31-27.38-54.69-41.44-81.84c-3.89-7.52-5.84-14.99-5.44-23.44c0.46-9.65,0.11-19.33,0.11-28.86
		c-42.81,0-84.59,0-126.62,0c0,9.64-0.43,18.64,0.12,27.57c0.58,9.58-1.91,17.95-6.31,26.41c-13.88,26.65-27.21,53.58-40.73,80.42
		c-1.13,2.24-2.07,4.58-2.78,6.17c8.74,5.7,16.68,11.35,25.08,16.2c4.91,2.84,10.38,5.26,15.9,6.42
		c13.7,2.87,24.38-4.06,34.65-11.95c15.96-12.26,34.28-15.83,53.13-10.22c10.54,3.14,20.15,9.96,29.63,15.99
		c13.35,8.49,28.73,9.12,41.65,0.63C527.63,273.36,536.17,267.74,545.14,261.85z M351.76,94.2c53.92,0,107.21,0,160.3,0
		c0-8.76,0-16.78,0-24.85c-53.74,0-106.85,0-160.3,0C351.76,77.76,351.76,85.61,351.76,94.2z"/>
	<path id="XMLID_118_" class="st0" d="M299.27,531.9c0-48.33-0.08-96.67,0.04-145c0.04-17.64,4.01-34.55,11.01-50.7
		c2.42-5.59,7.24-9.6,13.12-7.69c4.35,1.41,8.33,5.57,11.14,9.47c1.33,1.85,0.16,6.19-0.94,8.98c-5.85,14.94-8.37,30.3-8.34,46.39
		c0.21,95.34,0.11,190.69,0.1,286.03c0,13.13-4.38,19.64-13.13,19.6c-8.71-0.04-13.01-6.54-13.01-19.71
		C299.26,630.15,299.27,581.02,299.27,531.9z"/>
	<path id="XMLID_117_" class="st0" d="M325.38,763.93c0,8.18,0.24,16.36-0.06,24.52c-0.33,8.75-5.41,13.92-12.98,13.91
		c-7.59-0.01-12.82-5.21-12.96-13.92c-0.26-16.61-0.27-33.23,0.02-49.84c0.14-8.05,5.54-13.44,12.56-13.68
		c7.28-0.25,12.72,5.3,13.41,13.69c0.04,0.52,0.04,1.05,0.04,1.58c0,7.91,0,15.82,0,23.74H325.38z"/>
	<path id="XMLID_116_" class="st0" d="M431.45,172.66c-7.37-0.01-14.74,0.19-22.1-0.06c-9.06-0.31-14.68-5.6-14.56-13.25
		c0.11-7.38,5.46-12.64,14.16-12.8c15.52-0.3,31.05-0.32,46.57,0.02c8.57,0.19,13.9,5.78,13.78,13.17
		c-0.12,7.37-5.54,12.31-14.17,12.9c-0.52,0.04-1.05,0.03-1.58,0.03C446.19,172.67,438.82,172.67,431.45,172.66z"/>
</g>
</svg>
